<svg width="24" height="24" viewBox="0 0 24 24" fill="none" xmlns="http://www.w3.org/2000/svg">
<path fill-rule="evenodd" clip-rule="evenodd" d="M1 4.99854C1 2.7894 2.79086 0.998535 5 0.998535H19C21.2091 0.998535 23 2.7894 23 4.99854V18.9985C23 21.2076 21.2091 22.9985 19 22.9985H5C2.79086 22.9985 1 21.2076 1 18.9985V4.99854ZM5 2.99854H19C20.1046 2.99854 21 3.89397 21 4.99854V18.9985C21 20.1031 20.1046 20.9985 19 20.9985H5C3.89543 20.9985 3 20.1031 3 18.9985V4.99854C3 3.89397 3.89543 2.99854 5 2.99854Z" fill="#359C31"/>
</svg>
