<svg width="24" height="24" viewBox="0 0 24 24" fill="none" xmlns="http://www.w3.org/2000/svg">
<path fill-rule="evenodd" clip-rule="evenodd" d="M1.00024 4.9986C1.00024 2.78946 2.7911 0.998596 5.00024 0.998596H19.0002C21.2093 0.998596 23.0002 2.78946 23.0002 4.9986V18.9986C23.0002 21.2077 21.2093 22.9986 19.0002 22.9986H5.00024C2.7911 22.9986 1.00024 21.2077 1.00024 18.9986V4.9986ZM5.00024 2.9986H19.0002C20.1048 2.9986 21.0002 3.89403 21.0002 4.9986V18.9986C21.0002 20.1032 20.1048 20.9986 19.0002 20.9986H5.00024C3.89567 20.9986 3.00024 20.1032 3.00024 18.9986V4.9986C3.00024 3.89403 3.89567 2.9986 5.00024 2.9986Z" fill="#A0A0A0"/>
</svg>
